<?xml version="1.0" encoding="utf-8"?>
<svg xmlns="http://www.w3.org/2000/svg" viewBox="13.1613 90.7585 121.7163 153.262" width="121.716px" height="153.262px" preserveAspectRatio="none"><defs><clipPath id="clip0_128_24"><rect width="121.708" height="153.262" fill="white"/></clipPath></defs><g transform="matrix(0.9999999999999999, 0, 0, 0.9999999999999999, 13.161346631666227, 90.75850812730948)" id="object-0"><path d="M120.97 89.4503L112.253 36.4287C111.514 31.906 107.54 28.5758 102.886 28.5758H100.729L101.941 43.7435C102.088 45.6486 101.483 47.4955 100.227 48.9497C98.9711 50.404 97.213 51.291 95.2924 51.4365C95.0855 51.451 94.8787 51.4656 94.6719 51.4656C90.9193 51.4656 87.7429 48.5716 87.4474 44.8779L86.1325 28.5758H44.6471L43.2435 44.9215C42.9333 48.6007 39.7421 51.4656 36.0043 51.4656C35.8122 51.4656 35.6201 51.451 35.3838 51.4365C31.3948 51.102 28.4104 47.6409 28.7502 43.6999L30.0503 28.5613H25.6625C20.9643 28.5613 16.9753 31.9497 16.281 36.516L0.029548 142.981C0.014774 143.054 0.014774 143.141 0 143.228C83.2811 159.021 106.594 91.1808 106.594 91.1808C105.797 120.28 93.0763 139.985 77.2829 153.262C105.944 146.878 125.889 119.379 120.97 89.4503Z" fill="#0989FF" clip-path="url(#clip0_128_24)"/><path d="M98.3211 44.0344L96.5777 22.468C95.5583 9.91791 85.1426 0.334475 72.3483 0.174509L59.0961 0C58.9926 0 58.8892 0 58.7858 0C46.0654 0 35.3247 9.69978 34.2462 22.1917L32.3699 44.0053C32.2074 45.9685 33.6848 47.6991 35.6792 47.8736C35.7827 47.8881 35.8861 47.8881 35.9895 47.8881C37.851 47.8881 39.4466 46.4775 39.6091 44.6161L41.4854 22.8025C42.2389 14.0043 49.7441 7.15486 58.7415 7.15486C58.8301 7.15486 58.904 7.15486 58.9926 7.15486L72.2597 7.31483C81.2719 7.43117 88.6145 14.1788 89.3385 23.0352L91.0818 44.6015C91.2295 46.463 92.8103 47.9027 94.6866 47.9027C94.7901 47.9027 94.8935 47.9027 94.9969 47.8881C96.9914 47.7281 98.4836 45.9976 98.3211 44.0344Z" fill="#0989FF" clip-path="url(#clip0_128_24)"/><text style="fill: rgb(255, 255, 255); font-family: Cooper; font-size: 101px; white-space: pre;" x="32" y="111.912">e</text></g></svg>